In the Electric Mist (2009) 1080p X264 MKV AC3+DTS NLSub


PLOT

A detective in the deep South is led into a series of 
surreal encounters with a troop of Confederate soldiers.


MM:    http://www.moviemeter.nl/film/43094

IMDB:    http://www.imdb.com/title/tt0910905/

INFO

SOURCE.......: Blu Ray 
RESOLUTiON...: 1920x1080P 
FRAMERATE....: 23,976fps
CODEC........: X264
CONTAiNER....: Matroska (mkv)
LANGUAGE.....: English
AUDiO 1......: DTS
AUDIO 2......: AC3
SUBTiTLES....: Dutch
SiZE.........: 8,95 GB

Thanks To ENCODER: Maupzilla

Enjoy This Nice Release

PLAYER INFO


      Complete name : In.The.Electric.Mist.1080p.AC3.DTS.NLSub.mkv
      Format : Matroska
      File size : 8.96 GiB
      Duration : 1h 42mn
      Overall bit rate : 12.5 Mbps
      Movie name : 1_2_video_test1
      Encoded date : UTC 2010-08-08 10:44:53
      Writing application : mkvmerge v3.4.0 ('Rapunzel') built on May 15 2010 09:38:20
      Writing library : libebml v0.8.0 + libmatroska v0.9.0
   Video #1
      ID : 1
      Format : AVC
      Format/Info : Advanced Video Codec
      Format profile : High@L4.0
      Format settings, CABAC : Yes
      Format settings, ReFrames : 3 frames
      Muxing mode : Container profile=Unknown@4.0
      Codec ID : V_MPEG4/ISO/AVC
      Duration : 1h 42mn
      Bit rate : 10.1 Mbps
      Width : 1 920 pixels
      Height : 1 080 pixels
      Display aspect ratio : 16:9
      Frame rate : 23.976 fps
      Resolution : 24 bits
      Colorimetry : 4:2:0
      Scan type : Progressive
      Bits/(Pixel*Frame) : 0.204
      Stream size : 7.24 GiB (81%)
      Title : Film
      Writing library : x264 core 96 r1613 81e75e9
      Encoding settings : cabac=1 / ref=3 / deblock=1:0:0 / analyse=0x3:0x133 / me=umh / 
subme=7 / psy=1 / psy_rd=1.00:0.00 / mixed_ref=1 / me_range=16 / chroma_me=1 / trellis=1 / 
8x8dct=1 / cqm=0 / deadzone=21,11 / fast_pskip=1 / chroma_qp_offset=-2 / threads=12 / 
sliced_threads=0 / nr=0 / decimate=1 / interlaced=0 / constrained_intra=0 / bframes=3 / 
b_pyramid=0 / b_adapt=1 / b_bias=0 / direct=1 / weightb=1 / weightp=2 / keyint=240 / 
keyint_min=24 / scenecut=40 / intra_refresh=0 / rc_lookahead=40 / rc=crf / mbtree=1 / 
crf=18.0 / qcomp=0.60 / qpmin=10 / qpmax=51 / qpstep=4 / vbv_maxrate=25000 / 
vbv_bufsize=25000 / crf_max=0.0 / ip_ratio=1.40 / aq=1:1.00 / nal_hrd=vbr
   Audio #2
      ID : 2
      Format : DTS
      Format/Info : Digital Theater Systems
      Codec ID : A_DTS
      Duration : 1h 42mn
      Bit rate mode : Constant
      Bit rate : 1 510 Kbps
      Channel(s) : 6 channels
      Channel positions : Front: L C R, Surround: L R, LFE
      Sampling rate : 48.0 KHz
      Resolution : 24 bits
      Stream size : 1.08 GiB (12%)
      Title : DTS
   Audio #3
      ID : 3
      Format : AC-3
      Format/Info : Audio Coding 3
      Codec ID : A_AC3
      Duration : 1h 42mn
      Bit rate mode : Constant
      Bit rate : 640 Kbps
      Channel(s) : 6 channels
      Channel positions : Front: L C R, Surround: L R, LFE
      Sampling rate : 48.0 KHz
      Stream size : 468 MiB (5%)
      Title : AC3
   Text #4
      ID : 4
      Format : UTF-8
      Codec ID : S_TEXT/UTF8
      Codec ID/Info : UTF-8 Plain Text
      Title : NLsubs
      Language : Dutch